# xmcd
#
# Track frame offsets:
# 182
# 14182
# 26957
# 41285
# 54272
# 69110
# 82670
# 95252
# 107510
# 120535
# 131060
# 145755
# 156470
# 171272
# 182920
# 195197
# 207410
# 219470
# 231395
# 244310
# 254415
# 268660
# 281147
# 299007
# 319120
#
# Disc length: 4397 seconds
#
#
# Revision: 2
# Processed by: cddbd v1.5.2PL0 Copyright (c) Steve Scherf et al.
# Submitted via: FreeRIP 2.951 
#
DISCID=77112b19
DTITLE=Various Artist - The Blues vol.2
DYEAR=1900
DGENRE=Blues
TTITLE0=I Guess I'm a Fool
TTITLE1=That's All Right
TTITLE2=I Don't Know
TTITLE3=Me And My Chauffeur
TTITLE4=Third Degree
TTITLE5=Free And Easy Mind
TTITLE6=Just Make Love To Me
TTITLE7=It Must Have Been The Devil
TTITLE8=Trouble, Trouble
TTITLE9=Double Dealing
TTITLE10=The Key
TTITLE11=Recession Blues
TTITLE12=Goin' Down Slow
TTITLE13=My Baby's Got Soul
TTITLE14=Spoonful
TTITLE15=The Sun Is Shining
TTITLE16=You Know My Love
TTITLE17=Wild Woman
TTITLE18=I'm a Little Mixed Up
TTITLE19=Lonely No More
TTITLE20=You Can't Judge a Book By Its Cover
TTITLE21=Dead Presidents
TTITLE22=Stick Around
TTITLE23=Weak Brain Narrow Mind
TTITLE24=Need To Belong
EXTD=
EXTT0=
EXTT1=
EXTT2=
EXTT3=
EXTT4=
EXTT5=
EXTT6=
EXTT7=
EXTT8=
EXTT9=
EXTT10=
EXTT11=
EXTT12=
EXTT13=
EXTT14=
EXTT15=
EXTT16=
EXTT17=
EXTT18=
EXTT19=
EXTT20=
EXTT21=
EXTT22=
EXTT23=
EXTT24=
PLAYORDER=
